<?xml version="1.0" encoding="iso-8859-1"?>
<!-- Generator: Adobe Illustrator 19.0.0, SVG Export Plug-In . SVG Version: 6.00 Build 0)  -->
<svg version="1.1" id="Layer_1" xmlns="http://www.w3.org/2000/svg" xmlns:xlink="http://www.w3.org/1999/xlink" x="0px" y="0px"
	 viewBox="0 0 511.999 511.999" style="enable-background:new 0 0 511.999 511.999;" xml:space="preserve">
<path style="fill:#FEA921;" d="M346.726,211.561l20.076,130.409l50.693-52.405l66.718,34.33L463.49,189.282
	C430.296,199.353,390.589,207.051,346.726,211.561z"/>
<path style="fill:#E58200;" d="M454.554,308.634l29.659,15.261L463.49,189.281c-8.339,2.53-17.089,4.91-26.213,7.127
	L454.554,308.634z"/>
<path style="fill:#FB0125;" d="M255.905,216.104c-20.319,0-40.171-0.668-59.398-1.922v131.733l22.039-16.729l1.077-0.817
	l23.585-17.902l11.376-8.635l60.717,44.082V214.183C296.075,215.437,276.224,216.104,255.905,216.104z"/>
<path style="fill:#CC111E;" d="M288.354,215.518V326.35l26.948,19.565V214.183C306.451,214.76,297.454,215.197,288.354,215.518z"/>
<path style="fill:#FEA921;" d="M48.32,189.282L27.596,323.895l66.718-34.33l50.693,52.405l20.076-130.409
	C121.221,207.051,81.514,199.353,48.32,189.282z"/>
<path style="fill:#E58200;" d="M138.711,208.392L121.715,317.89l23.293,24.08l20.076-130.409
	C156.109,210.638,147.319,209.575,138.711,208.392z"/>
<path style="fill:#AEADB3;" d="M256.001,224.327c-99.358,0-190.86-15.398-251.045-42.248c-4.216-1.882-6.11-6.824-4.229-11.041
	c1.882-4.217,6.826-6.11,11.041-4.228C69.031,192.356,160.333,207.607,256,207.607c95.666,0,186.968-15.251,244.231-40.797
	c4.21-1.882,9.159,0.011,11.041,4.228c1.882,4.217-0.013,9.159-4.229,11.041C446.86,208.929,355.358,224.327,256.001,224.327z"/>
<g>
</g>
<g>
</g>
<g>
</g>
<g>
</g>
<g>
</g>
<g>
</g>
<g>
</g>
<g>
</g>
<g>
</g>
<g>
</g>
<g>
</g>
<g>
</g>
<g>
</g>
<g>
</g>
<g>
</g>
</svg>
