<svg xmlns="http://www.w3.org/2000/svg" xmlns:xlink="http://www.w3.org/1999/xlink" version="1.1" width="256" height="256" viewBox="0 0 256 256" xml:space="preserve">
<desc>Created with Fabric.js 1.7.22</desc>
<defs>
</defs>
<g transform="translate(128 128) scale(0.72 0.72)" style="">
	<g style="stroke: none; stroke-width: 0; stroke-dasharray: none; stroke-linecap: butt; stroke-linejoin: miter; stroke-miterlimit: 10; fill: none; fill-rule: nonzero; opacity: 1;" transform="translate(-175.05 -175.05000000000004) scale(3.89 3.89)" >
	<path d="M 75.197 12.705 c -10.333 -1.879 -19.341 -5.76 -26.775 -11.534 C 47.414 0.389 46.207 -0.002 45 -0.002 c -9.265 30.337 -9.479 60.344 0 90 c 0.867 0 1.734 -0.137 2.561 -0.41 c 19.584 -6.506 32.238 -22.036 32.238 -39.566 V 18.234 C 79.799 15.516 77.863 13.19 75.197 12.705 z" style="stroke: none; stroke-width: 1; stroke-dasharray: none; stroke-linecap: butt; stroke-linejoin: miter; stroke-miterlimit: 10; fill: rgb(56,177,119); fill-rule: nonzero; opacity: 1;" transform=" matrix(1 0 0 1 0 0) " stroke-linecap="round" />
	<path d="M 15.356 12.705 c 10.333 -1.879 19.341 -5.76 26.775 -11.534 c 1.008 -0.782 2.215 -1.173 3.422 -1.173 v 90 c -0.867 0 -1.734 -0.137 -2.561 -0.41 c -19.584 -6.506 -32.238 -22.036 -32.238 -39.566 V 18.234 C 10.755 15.516 12.69 13.19 15.356 12.705 z" style="stroke: none; stroke-width: 1; stroke-dasharray: none; stroke-linecap: butt; stroke-linejoin: miter; stroke-miterlimit: 10; fill: rgb(46,151,100); fill-rule: nonzero; opacity: 1;" transform=" matrix(1 0 0 1 0 0) " stroke-linecap="round" />
	<path d="M 45.553 22.528 C 45.368 22.523 45.187 22.5 45 22.5 c -11.855 0 -21.5 9.645 -21.5 21.5 c 0 11.855 9.645 21.5 21.5 21.5 c 0.187 0 0.368 -0.023 0.553 -0.028 C 47.437 51.086 47.47 36.77 45.553 22.528 z" style="stroke: none; stroke-width: 1; stroke-dasharray: none; stroke-linecap: butt; stroke-linejoin: miter; stroke-miterlimit: 10; fill: rgb(207,230,219); fill-rule: nonzero; opacity: 1;" transform=" matrix(1 0 0 1 0 0) " stroke-linecap="round" />
	<path d="M 45.553 22.528 c 0.186 -0.005 0.367 -0.028 0.553 -0.028 c 11.855 0 21.5 9.645 21.5 21.5 c 0 11.855 -9.645 21.5 -21.5 21.5 c -0.187 0 -0.368 -0.023 -0.553 -0.028 V 22.528 z" style="stroke: none; stroke-width: 1; stroke-dasharray: none; stroke-linecap: butt; stroke-linejoin: miter; stroke-miterlimit: 10; fill: rgb(228,240,234); fill-rule: nonzero; opacity: 1;" transform=" matrix(1 0 0 1 0 0) " stroke-linecap="round" />
	<path d="M 45.553 40.893 l -2.423 2.423 l -3.271 -3.271 c -1.161 -1.159 -3.048 -1.16 -4.208 0 l -2.25 2.25 c -1.16 1.161 -1.16 3.049 0 4.209 l 7.625 7.624 c 0.58 0.58 1.342 0.87 2.104 0.87 c 0.762 0 1.524 -0.29 2.104 -0.87 l 0.318 -0.318 C 47.401 49.389 47.506 45.078 45.553 40.893 z" style="stroke: none; stroke-width: 1; stroke-dasharray: none; stroke-linecap: butt; stroke-linejoin: miter; stroke-miterlimit: 10; fill: rgb(22,92,58); fill-rule: nonzero; opacity: 1;" transform=" matrix(1 0 0 1 0 0) " stroke-linecap="round" />
	<path d="M 56.598 38.556 l -2.249 -2.25 c -1.125 -1.125 -3.086 -1.123 -4.209 0 l -4.586 4.586 v 12.916 l 11.044 -11.045 C 57.758 41.604 57.758 39.716 56.598 38.556 z" style="stroke: none; stroke-width: 1; stroke-dasharray: none; stroke-linecap: butt; stroke-linejoin: miter; stroke-miterlimit: 10; fill: rgb(25,105,66); fill-rule: nonzero; opacity: 1;" transform=" matrix(1 0 0 1 0 0) " stroke-linecap="round" />
</g>
</g>
</svg>